# xmcd CD database file
# Copyright (C) 1993-1998 Ti Kan
#
# Track frame offsets:
#	150
#	8763
#	19685
#	41281
#	55745
#	67024
#	81116
#	96006
#	109595
#	127213
#	140793
#	147255
#	166336
#	167372
#
# Disc length: 2236 seconds
#
# Revision: 2
# Processed by: cddbd v1.4b41PL1 Copyright (c) Steve Scherf et al.
# Submitted via: xmcd 2.2 PL1
#
DISCID=b508ba0e
DTITLE=Jimmy Fox - i am the spider
DYEAR=1900
DGENRE=
TTITLE0=Soul Shampoo
TTITLE1=Headswimming
TTITLE2=I Like Daisies
TTITLE3=Walk the World
TTITLE4=Cigar
TTITLE5=Basically
TTITLE6=Happy Froggy
TTITLE7=The Grouper Man
TTITLE8=My Kay-O-Pec-Tate Dreams
TTITLE9=The Innocent Kind
TTITLE10=Tired Old Cedrone
TTITLE11=Tijuana
TTITLE12=(lesbians)
TTITLE13=(two bits)
EXTD=Fruit Punch Records\nhttp://www.fruitpunch.com\n
EXTT0=
EXTT1=
EXTT2=
EXTT3=
EXTT4=
EXTT5=
EXTT6=
EXTT7=
EXTT8=
EXTT9=
EXTT10=
EXTT11=
EXTT12=
EXTT13=
PLAYORDER=
